<svg xmlns="http://www.w3.org/2000/svg" width="147" height="30" viewBox="0 0 147 30" fill="none">
<path d="M17.609 23.87V29H0.927047V1.317H7.34905V23.87H17.609ZM30.3729 20.982C29.1949 21.0327 28.2259 21.134 27.4659 21.286C26.7059 21.438 26.1042 21.628 25.6609 21.856C25.2176 22.084 24.9072 22.3437 24.7299 22.635C24.5652 22.9263 24.4829 23.243 24.4829 23.585C24.4829 24.2563 24.6666 24.7313 25.0339 25.01C25.4012 25.276 25.9396 25.409 26.6489 25.409C27.4089 25.409 28.0739 25.276 28.6439 25.01C29.2139 24.744 29.7902 24.3133 30.3729 23.718V20.982ZM19.7709 12.033C20.9616 10.9817 22.2789 10.2027 23.7229 9.696C25.1796 9.17667 26.7376 8.917 28.3969 8.917C29.5876 8.917 30.6579 9.11333 31.6079 9.506C32.5706 9.886 33.3812 10.4243 34.0399 11.121C34.7112 11.805 35.2242 12.622 35.5789 13.572C35.9336 14.522 36.1109 15.5607 36.1109 16.688V29H33.4129C32.8556 29 32.4312 28.924 32.1399 28.772C31.8612 28.62 31.6269 28.3033 31.4369 27.822L31.0189 26.739C30.5249 27.157 30.0499 27.5243 29.5939 27.841C29.1379 28.1577 28.6629 28.43 28.1689 28.658C27.6876 28.8733 27.1682 29.0317 26.6109 29.133C26.0662 29.247 25.4582 29.304 24.7869 29.304C23.8876 29.304 23.0706 29.19 22.3359 28.962C21.6012 28.7213 20.9742 28.373 20.4549 27.917C19.9482 27.461 19.5556 26.8973 19.2769 26.226C18.9982 25.542 18.8589 24.7567 18.8589 23.87C18.8589 23.1607 19.0362 22.445 19.3909 21.723C19.7456 20.9883 20.3599 20.3233 21.2339 19.728C22.1079 19.12 23.2859 18.6133 24.7679 18.208C26.2499 17.8027 28.1182 17.5747 30.3729 17.524V16.688C30.3729 15.5353 30.1322 14.7057 29.6509 14.199C29.1822 13.6797 28.5109 13.42 27.6369 13.42C26.9402 13.42 26.3702 13.496 25.9269 13.648C25.4836 13.8 25.0846 13.971 24.7299 14.161C24.3879 14.351 24.0522 14.522 23.7229 14.674C23.3936 14.826 23.0009 14.902 22.5449 14.902C22.1396 14.902 21.7976 14.8007 21.5189 14.598C21.2402 14.3953 21.0122 14.1547 20.8349 13.876L19.7709 12.033ZM45.7659 23.642C46.2092 24.1233 46.6905 24.4653 47.2099 24.668C47.7292 24.8707 48.2549 24.972 48.7869 24.972C49.3442 24.972 49.8572 24.8707 50.3259 24.668C50.7945 24.4527 51.1935 24.1107 51.5229 23.642C51.8649 23.1607 52.1309 22.5337 52.3209 21.761C52.5109 20.9757 52.6059 20.013 52.6059 18.873C52.6059 17.885 52.5299 17.049 52.3779 16.365C52.2385 15.6683 52.0232 15.1047 51.7319 14.674C51.4532 14.2307 51.0985 13.914 50.6679 13.724C50.2499 13.5213 49.7685 13.42 49.2239 13.42C48.5019 13.42 47.8749 13.5783 47.3429 13.895C46.8109 14.2117 46.2852 14.674 45.7659 15.282V23.642ZM45.7659 11.387C46.5259 10.665 47.3555 10.0887 48.2549 9.658C49.1669 9.21467 50.1802 8.993 51.2949 8.993C52.4095 8.993 53.4229 9.221 54.3349 9.677C55.2469 10.133 56.0259 10.7853 56.6719 11.634C57.3179 12.47 57.8119 13.4833 58.1539 14.674C58.5085 15.8647 58.6859 17.1947 58.6859 18.664C58.6859 20.26 58.4832 21.7103 58.0779 23.015C57.6725 24.3197 57.0962 25.4407 56.3489 26.378C55.6142 27.3027 54.7339 28.0247 53.7079 28.544C52.6819 29.0507 51.5482 29.304 50.3069 29.304C49.7115 29.304 49.1795 29.247 48.7109 29.133C48.2422 29.019 47.8115 28.8607 47.4189 28.658C47.0262 28.4427 46.6652 28.1893 46.3359 27.898C46.0192 27.6067 45.7089 27.29 45.4049 26.948L45.1959 27.936C45.0945 28.3413 44.9299 28.62 44.7019 28.772C44.4739 28.924 44.1699 29 43.7899 29H39.8759V0.556998H45.7659V11.387Z" fill="#FFA500"/>
<path d="M84.2444 1.317L73.1484 29H67.3344L56.2384 1.317H61.4064C61.9638 1.317 62.4134 1.45 62.7554 1.716C63.0974 1.96933 63.3571 2.29867 63.5344 2.704L68.8924 17.524C69.1458 18.17 69.3928 18.8793 69.6334 19.652C69.8741 20.412 70.1021 21.21 70.3174 22.046C70.4948 21.21 70.6911 20.412 70.9064 19.652C71.1344 18.8793 71.3751 18.17 71.6284 17.524L76.9484 2.704C77.0878 2.34933 77.3348 2.03267 77.6894 1.754C78.0568 1.46267 78.5064 1.317 79.0384 1.317H84.2444ZM91.766 9.297V29H85.876V9.297H91.766ZM92.374 3.901C92.374 4.36967 92.279 4.813 92.089 5.231C91.899 5.63633 91.6394 5.99733 91.31 6.314C90.9807 6.618 90.5944 6.865 90.151 7.055C89.7204 7.23233 89.258 7.321 88.764 7.321C88.2827 7.321 87.833 7.23233 87.415 7.055C86.997 6.865 86.6234 6.618 86.294 6.314C85.9774 5.99733 85.724 5.63633 85.534 5.231C85.3567 4.813 85.268 4.36967 85.268 3.901C85.268 3.41966 85.3567 2.97 85.534 2.552C85.724 2.134 85.9774 1.76667 86.294 1.45C86.6234 1.13333 86.997 0.886333 87.415 0.708998C87.833 0.531666 88.2827 0.443 88.764 0.443C89.258 0.443 89.7204 0.531666 90.151 0.708998C90.5944 0.886333 90.9807 1.13333 91.31 1.45C91.6394 1.76667 91.899 2.134 92.089 2.552C92.279 2.97 92.374 3.41966 92.374 3.901ZM107.825 14.579C107.382 14.085 106.9 13.743 106.381 13.553C105.862 13.3503 105.317 13.249 104.747 13.249C104.202 13.249 103.702 13.3567 103.246 13.572C102.79 13.7873 102.391 14.1357 102.049 14.617C101.72 15.0857 101.46 15.7 101.27 16.46C101.08 17.22 100.985 18.1383 100.985 19.215C100.985 20.2537 101.061 21.1277 101.213 21.837C101.365 22.5463 101.574 23.1227 101.84 23.566C102.119 23.9967 102.448 24.307 102.828 24.497C103.208 24.687 103.632 24.782 104.101 24.782C104.532 24.782 104.918 24.744 105.26 24.668C105.615 24.5793 105.938 24.459 106.229 24.307C106.52 24.155 106.793 23.965 107.046 23.737C107.312 23.4963 107.572 23.224 107.825 22.92V14.579ZM113.715 0.556998V29H110.067C109.332 29 108.851 28.6707 108.623 28.012L108.167 26.511C107.774 26.929 107.363 27.309 106.932 27.651C106.501 27.993 106.033 28.2907 105.526 28.544C105.032 28.7847 104.494 28.9683 103.911 29.095C103.341 29.2343 102.72 29.304 102.049 29.304C101.023 29.304 100.073 29.076 99.1989 28.62C98.3249 28.164 97.5712 27.5053 96.9379 26.644C96.3046 25.7827 95.8042 24.7313 95.4369 23.49C95.0822 22.236 94.9049 20.811 94.9049 19.215C94.9049 17.7457 95.1076 16.384 95.5129 15.13C95.9182 13.8633 96.4882 12.774 97.2229 11.862C97.9702 10.9373 98.8632 10.2153 99.9019 9.696C100.941 9.17667 102.087 8.917 103.341 8.917C104.367 8.917 105.228 9.06267 105.925 9.354C106.622 9.64533 107.255 10.038 107.825 10.532V0.556998H113.715ZM123.717 9.297V29H117.827V9.297H123.717ZM124.325 3.901C124.325 4.36967 124.23 4.813 124.04 5.231C123.85 5.63633 123.591 5.99733 123.261 6.314C122.932 6.618 122.546 6.865 122.102 7.055C121.672 7.23233 121.209 7.321 120.715 7.321C120.234 7.321 119.784 7.23233 119.366 7.055C118.948 6.865 118.575 6.618 118.245 6.314C117.929 5.99733 117.675 5.63633 117.485 5.231C117.308 4.813 117.219 4.36967 117.219 3.901C117.219 3.41966 117.308 2.97 117.485 2.552C117.675 2.134 117.929 1.76667 118.245 1.45C118.575 1.13333 118.948 0.886333 119.366 0.708998C119.784 0.531666 120.234 0.443 120.715 0.443C121.209 0.443 121.672 0.531666 122.102 0.708998C122.546 0.886333 122.932 1.13333 123.261 1.45C123.591 1.76667 123.85 2.134 124.04 2.552C124.23 2.97 124.325 3.41966 124.325 3.901ZM146.673 29H141.011C140.593 29 140.251 28.8987 139.985 28.696C139.732 28.4933 139.529 28.2527 139.377 27.974L135.862 21.932C135.799 22.1473 135.723 22.35 135.634 22.54C135.545 22.73 135.45 22.9073 135.349 23.072L132.461 27.974C132.284 28.2273 132.075 28.4617 131.834 28.677C131.593 28.8923 131.283 29 130.903 29H125.659L132.271 18.816L125.925 9.297H131.587C132.005 9.297 132.309 9.354 132.499 9.468C132.702 9.56933 132.879 9.74667 133.031 10L136.546 15.833C136.622 15.605 136.717 15.3833 136.831 15.168C136.945 14.94 137.072 14.712 137.211 14.484L139.719 10.095C139.896 9.81633 140.08 9.61367 140.27 9.487C140.473 9.36033 140.72 9.297 141.011 9.297H146.407L140.061 18.55L146.673 29Z" fill="#3858FF"/>
</svg>