<svg xmlns="http://www.w3.org/2000/svg" width="24" height="24" viewBox="0 0 24 24" fill="none">
<g id="arrow right">
<path id="Vector" d="M2.9999 11.9991C2.9999 11.8002 3.07892 11.6094 3.21957 11.4688C3.36022 11.3281 3.55099 11.2491 3.7499 11.2491H18.4396L12.9693 5.77972C12.8996 5.71004 12.8443 5.62731 12.8066 5.53627C12.7689 5.44522 12.7495 5.34764 12.7495 5.24909C12.7495 5.15055 12.7689 5.05297 12.8066 4.96192C12.8443 4.87088 12.8996 4.78815 12.9693 4.71847C13.039 4.64879 13.1217 4.59351 13.2127 4.5558C13.3038 4.51809 13.4014 4.49868 13.4999 4.49868C13.5984 4.49868 13.696 4.51809 13.7871 4.5558C13.8781 4.59351 13.9608 4.64879 14.0305 4.71847L20.7805 11.4685C20.8503 11.5381 20.9056 11.6208 20.9433 11.7119C20.9811 11.8029 21.0005 11.9005 21.0005 11.9991C21.0005 12.0977 20.9811 12.1953 20.9433 12.2863C20.9056 12.3773 20.8503 12.4601 20.7805 12.5297L14.0305 19.2797C13.8898 19.4205 13.6989 19.4995 13.4999 19.4995C13.3009 19.4995 13.11 19.4205 12.9693 19.2797C12.8285 19.139 12.7495 18.9481 12.7495 18.7491C12.7495 18.5501 12.8285 18.3592 12.9693 18.2185L18.4396 12.7491H3.7499C3.55099 12.7491 3.36022 12.6701 3.21957 12.5294C3.07892 12.3888 2.9999 12.198 2.9999 11.9991Z" fill="#7E7E7E"/>
</g>
</svg>