<svg xmlns="http://www.w3.org/2000/svg" width="24" height="24" viewBox="0 0 24 24" fill="none">
<g id="CaretUp">
<path id="Vector" d="M20.0306 15.5298C19.9609 15.5995 19.8782 15.6548 19.7871 15.6925C19.6961 15.7303 19.5985 15.7497 19.4999 15.7497C19.4014 15.7497 19.3038 15.7303 19.2127 15.6925C19.1217 15.6548 19.039 15.5995 18.9693 15.5298L11.9999 8.55944L5.03055 15.5298C4.88982 15.6705 4.69895 15.7495 4.49993 15.7495C4.30091 15.7495 4.11003 15.6705 3.9693 15.5298C3.82857 15.389 3.74951 15.1981 3.74951 14.9991C3.74951 14.8001 3.82857 14.6092 3.9693 14.4685L11.4693 6.9685C11.539 6.89877 11.6217 6.84345 11.7127 6.80571C11.8038 6.76796 11.9014 6.74854 11.9999 6.74854C12.0985 6.74854 12.1961 6.76796 12.2871 6.80571C12.3782 6.84345 12.4609 6.89877 12.5306 6.9685L20.0306 14.4685C20.1003 14.5382 20.1556 14.6209 20.1933 14.7119C20.2311 14.803 20.2505 14.9006 20.2505 14.9991C20.2505 15.0977 20.2311 15.1953 20.1933 15.2863C20.1556 15.3774 20.1003 15.4601 20.0306 15.5298Z" fill="#3A3A49"/>
</g>
</svg>