<svg xmlns="http://www.w3.org/2000/svg" width="24" height="25" viewBox="0 0 24 25" fill="none">
<path d="M21.7959 8.14607L9.7959 20.1461C9.69138 20.251 9.56719 20.3342 9.43044 20.3909C9.2937 20.4477 9.14709 20.477 8.99902 20.477C8.85096 20.477 8.70435 20.4477 8.5676 20.3909C8.43085 20.3342 8.30666 20.251 8.20215 20.1461L2.95215 14.8961C2.8475 14.7914 2.76449 14.6672 2.70785 14.5305C2.65122 14.3937 2.62207 14.2472 2.62207 14.0992C2.62207 13.9512 2.65122 13.8047 2.70785 13.6679C2.76449 13.5312 2.8475 13.407 2.95215 13.3023C3.05679 13.1977 3.18103 13.1147 3.31776 13.058C3.45448 13.0014 3.60103 12.9722 3.74902 12.9722C3.89702 12.9722 4.04356 13.0014 4.18029 13.058C4.31702 13.1147 4.44125 13.1977 4.5459 13.3023L8.99996 17.7564L20.204 6.5542C20.4154 6.34285 20.702 6.22412 21.0009 6.22412C21.2998 6.22412 21.5864 6.34285 21.7978 6.5542C22.0091 6.76554 22.1278 7.05219 22.1278 7.35107C22.1278 7.64996 22.0091 7.9366 21.7978 8.14795L21.7959 8.14607Z" fill="#3858FF"/>
</svg>