<svg xmlns="http://www.w3.org/2000/svg" width="24" height="24" viewBox="0 0 24 24" fill="none">
<g id="FileText">
<path id="Vector" d="M20.0306 7.7184L14.7806 2.4684C14.7109 2.39877 14.6282 2.34356 14.5371 2.30592C14.4461 2.26828 14.3485 2.24895 14.25 2.24902H5.25C4.85218 2.24902 4.47064 2.40706 4.18934 2.68836C3.90804 2.96967 3.75 3.3512 3.75 3.74902V20.249C3.75 20.6468 3.90804 21.0284 4.18934 21.3097C4.47064 21.591 4.85218 21.749 5.25 21.749H18.75C19.1478 21.749 19.5294 21.591 19.8107 21.3097C20.092 21.0284 20.25 20.6468 20.25 20.249V8.24902C20.2501 8.1505 20.2307 8.05293 20.1931 7.96189C20.1555 7.87084 20.1003 7.7881 20.0306 7.7184ZM15 4.80934L17.6897 7.49902H15V4.80934ZM18.75 20.249H5.25V3.74902H13.5V8.24902C13.5 8.44794 13.579 8.6387 13.7197 8.77935C13.8603 8.92001 14.0511 8.99902 14.25 8.99902H18.75V20.249ZM15.75 12.749C15.75 12.9479 15.671 13.1387 15.5303 13.2794C15.3897 13.42 15.1989 13.499 15 13.499H9C8.80109 13.499 8.61032 13.42 8.46967 13.2794C8.32902 13.1387 8.25 12.9479 8.25 12.749C8.25 12.5501 8.32902 12.3593 8.46967 12.2187C8.61032 12.078 8.80109 11.999 9 11.999H15C15.1989 11.999 15.3897 12.078 15.5303 12.2187C15.671 12.3593 15.75 12.5501 15.75 12.749ZM15.75 15.749C15.75 15.9479 15.671 16.1387 15.5303 16.2794C15.3897 16.42 15.1989 16.499 15 16.499H9C8.80109 16.499 8.61032 16.42 8.46967 16.2794C8.32902 16.1387 8.25 15.9479 8.25 15.749C8.25 15.5501 8.32902 15.3593 8.46967 15.2187C8.61032 15.078 8.80109 14.999 9 14.999H15C15.1989 14.999 15.3897 15.078 15.5303 15.2187C15.671 15.3593 15.75 15.5501 15.75 15.749Z" fill="#3A3A49"/>
</g>
</svg>