<svg xmlns="http://www.w3.org/2000/svg" width="24" height="25" viewBox="0 0 24 25" fill="none">
<g id="X">
<path id="Vector" d="M19.2807 18.8194C19.3504 18.8891 19.4056 18.9718 19.4433 19.0629C19.4811 19.1539 19.5005 19.2515 19.5005 19.35C19.5005 19.4486 19.4811 19.5462 19.4433 19.6372C19.4056 19.7282 19.3504 19.811 19.2807 19.8807C19.211 19.9503 19.1283 20.0056 19.0372 20.0433C18.9462 20.081 18.8486 20.1004 18.7501 20.1004C18.6515 20.1004 18.5539 20.081 18.4629 20.0433C18.3718 20.0056 18.2891 19.9503 18.2194 19.8807L12.0001 13.6603L5.78068 19.8807C5.63995 20.0214 5.44907 20.1004 5.25005 20.1004C5.05103 20.1004 4.86016 20.0214 4.71943 19.8807C4.5787 19.7399 4.49963 19.5491 4.49963 19.35C4.49963 19.151 4.5787 18.9601 4.71943 18.8194L10.9397 12.6L4.71943 6.38065C4.5787 6.23992 4.49963 6.04905 4.49963 5.85003C4.49963 5.651 4.5787 5.46013 4.71943 5.3194C4.86016 5.17867 5.05103 5.09961 5.25005 5.09961C5.44907 5.09961 5.63995 5.17867 5.78068 5.3194L12.0001 11.5397L18.2194 5.3194C18.3602 5.17867 18.551 5.09961 18.7501 5.09961C18.9491 5.09961 19.1399 5.17867 19.2807 5.3194C19.4214 5.46013 19.5005 5.651 19.5005 5.85003C19.5005 6.04905 19.4214 6.23992 19.2807 6.38065L13.0604 12.6L19.2807 18.8194Z" fill="#3A3A49"/>
</g>
</svg>