<svg width="109" height="33" viewBox="0 0 109 33" fill="none" xmlns="http://www.w3.org/2000/svg">
<path d="M18.0358 22.9193V26.5H6.39203V7.17764H10.8745V22.9193H18.0358ZM26.9448 20.9035C26.1226 20.9389 25.4463 21.0096 24.9158 21.1157C24.3853 21.2218 23.9654 21.3544 23.6559 21.5136C23.3465 21.6727 23.1299 21.854 23.0061 22.0573C22.8912 22.2607 22.8337 22.4817 22.8337 22.7204C22.8337 23.189 22.9619 23.5205 23.2183 23.715C23.4747 23.9007 23.8504 23.9935 24.3455 23.9935C24.876 23.9935 25.3402 23.9007 25.738 23.715C26.1359 23.5294 26.5381 23.2288 26.9448 22.8132V20.9035ZM19.5448 14.6573C20.3759 13.9234 21.2953 13.3797 22.3032 13.0261C23.32 12.6636 24.4074 12.4823 25.5656 12.4823C26.3967 12.4823 27.1438 12.6194 27.8068 12.8934C28.4788 13.1587 29.0446 13.5344 29.5044 14.0207C29.9729 14.4981 30.331 15.0684 30.5786 15.7315C30.8261 16.3945 30.9499 17.1195 30.9499 17.9064V26.5H29.0667C28.6777 26.5 28.3815 26.447 28.1782 26.3409C27.9837 26.2348 27.8201 26.0137 27.6875 25.6778L27.3957 24.9219C27.0509 25.2136 26.7194 25.47 26.4011 25.691C26.0828 25.9121 25.7513 26.1021 25.4065 26.2613C25.0705 26.4116 24.708 26.5221 24.319 26.5928C23.9388 26.6724 23.5145 26.7122 23.0459 26.7122C22.4182 26.7122 21.8479 26.6326 21.3351 26.4735C20.8223 26.3055 20.3847 26.0624 20.0222 25.7441C19.6686 25.4258 19.3945 25.0324 19.2 24.5638C19.0055 24.0864 18.9082 23.5382 18.9082 22.9193C18.9082 22.4242 19.032 21.9247 19.2795 21.4208C19.5271 20.908 19.9559 20.4438 20.5659 20.0283C21.176 19.6039 21.9982 19.2502 23.0326 18.9673C24.067 18.6844 25.3711 18.5253 26.9448 18.4899V17.9064C26.9448 17.1018 26.7769 16.5227 26.4409 16.1691C26.1138 15.8066 25.6452 15.6254 25.0351 15.6254C24.5489 15.6254 24.151 15.6784 23.8416 15.7845C23.5321 15.8906 23.2536 16.01 23.0061 16.1426C22.7674 16.2752 22.5331 16.3945 22.3032 16.5006C22.0734 16.6067 21.7993 16.6598 21.481 16.6598C21.1981 16.6598 20.9594 16.5891 20.7649 16.4476C20.5704 16.3061 20.4112 16.1382 20.2874 15.9436L19.5448 14.6573ZM37.6889 22.7602C37.9984 23.0962 38.3343 23.3349 38.6968 23.4763C39.0593 23.6178 39.4262 23.6885 39.7975 23.6885C40.1866 23.6885 40.5446 23.6178 40.8717 23.4763C41.1989 23.326 41.4774 23.0873 41.7072 22.7602C41.9459 22.4242 42.1316 21.9866 42.2642 21.4473C42.3968 20.8991 42.4632 20.2272 42.4632 19.4315C42.4632 18.7419 42.4101 18.1584 42.304 17.6809C42.2068 17.1947 42.0565 16.8012 41.8531 16.5006C41.6586 16.1912 41.4111 15.9702 41.1105 15.8376C40.8187 15.6961 40.4827 15.6254 40.1026 15.6254C39.5986 15.6254 39.161 15.7359 38.7896 15.9569C38.4183 16.1779 38.0514 16.5006 37.6889 16.925V22.7602ZM37.6889 14.2064C38.2194 13.7024 38.7985 13.3001 39.4262 12.9995C40.0628 12.6901 40.7701 12.5354 41.5481 12.5354C42.3261 12.5354 43.0334 12.6945 43.67 13.0128C44.3065 13.3311 44.8503 13.7864 45.3012 14.3788C45.7521 14.9623 46.0969 15.6696 46.3356 16.5006C46.5831 17.3317 46.7069 18.26 46.7069 19.2856C46.7069 20.3996 46.5655 21.4119 46.2825 22.3225C45.9996 23.2332 45.5973 24.0156 45.0757 24.6699C44.5629 25.3153 43.9485 25.8192 43.2323 26.1817C42.5162 26.5354 41.7249 26.7122 40.8585 26.7122C40.4429 26.7122 40.0716 26.6724 39.7445 26.5928C39.4174 26.5133 39.1168 26.4027 38.8427 26.2613C38.5686 26.111 38.3166 25.9342 38.0868 25.7308C37.8657 25.5275 37.6491 25.3064 37.4369 25.0677L37.2911 25.7573C37.2203 26.0403 37.1054 26.2348 36.9463 26.3409C36.7871 26.447 36.5749 26.5 36.3097 26.5H33.5778V6.64717H37.6889V14.2064Z" fill="#FFA500"/>
<path d="M64.5464 7.17764L56.8016 26.5H52.7435L44.9986 7.17764H48.6058C48.9948 7.17764 49.3087 7.27047 49.5474 7.45613C49.7861 7.63296 49.9674 7.86283 50.0911 8.14574L53.831 18.4899C54.0078 18.9408 54.1802 19.4359 54.3482 19.9752C54.5161 20.5057 54.6753 21.0627 54.8256 21.6462C54.9494 21.0627 55.0864 20.5057 55.2367 19.9752C55.3958 19.4359 55.5638 18.9408 55.7406 18.4899L59.4539 8.14574C59.5512 7.89819 59.7236 7.67716 59.9711 7.48266C60.2275 7.27931 60.5414 7.17764 60.9127 7.17764H64.5464ZM69.7964 12.7476V26.5H65.6853V12.7476H69.7964ZM70.2208 8.98123C70.2208 9.30836 70.1545 9.6178 70.0219 9.90956C69.8893 10.1925 69.708 10.4444 69.4782 10.6655C69.2483 10.8777 68.9786 11.0501 68.6692 11.1827C68.3686 11.3065 68.0459 11.3683 67.7011 11.3683C67.3651 11.3683 67.0513 11.3065 66.7595 11.1827C66.4677 11.0501 66.2069 10.8777 65.9771 10.6655C65.756 10.4444 65.5792 10.1925 65.4466 9.90956C65.3228 9.6178 65.2609 9.30836 65.2609 8.98123C65.2609 8.64527 65.3228 8.33141 65.4466 8.03965C65.5792 7.74789 65.756 7.4915 65.9771 7.27047C66.2069 7.04944 66.4677 6.87704 66.7595 6.75326C67.0513 6.62948 67.3651 6.5676 67.7011 6.5676C68.0459 6.5676 68.3686 6.62948 68.6692 6.75326C68.9786 6.87704 69.2483 7.04944 69.4782 7.27047C69.708 7.4915 69.8893 7.74789 70.0219 8.03965C70.1545 8.33141 70.2208 8.64527 70.2208 8.98123ZM81.0053 16.4343C80.6959 16.0895 80.3599 15.8508 79.9974 15.7182C79.6349 15.5767 79.2548 15.506 78.8569 15.506C78.4767 15.506 78.1275 15.5812 77.8092 15.7315C77.4909 15.8818 77.2124 16.1249 76.9737 16.4609C76.7439 16.788 76.5626 17.2168 76.43 17.7472C76.2974 18.2777 76.2311 18.9187 76.2311 19.6702C76.2311 20.3952 76.2841 21.0052 76.3902 21.5003C76.4963 21.9954 76.6422 22.3977 76.8279 22.7071C77.0224 23.0077 77.2522 23.2243 77.5175 23.357C77.7827 23.4896 78.0789 23.5559 78.406 23.5559C78.7066 23.5559 78.9763 23.5294 79.215 23.4763C79.4625 23.4144 79.688 23.3304 79.8913 23.2243C80.0947 23.1183 80.2848 22.9856 80.4616 22.8265C80.6472 22.6585 80.8285 22.4684 81.0053 22.2562V16.4343ZM85.1164 6.64717V26.5H82.5702C82.0574 26.5 81.7214 26.2701 81.5623 25.8104L81.244 24.7627C80.9699 25.0545 80.6826 25.3197 80.382 25.5584C80.0814 25.7971 79.7543 26.0049 79.4006 26.1817C79.0558 26.3497 78.6801 26.4779 78.2734 26.5663C77.8755 26.6636 77.4423 26.7122 76.9737 26.7122C76.2576 26.7122 75.5945 26.553 74.9845 26.2348C74.3744 25.9165 73.8484 25.4567 73.4063 24.8555C72.9643 24.2543 72.615 23.5205 72.3586 22.6541C72.1111 21.7788 71.9873 20.7842 71.9873 19.6702C71.9873 18.6446 72.1288 17.6942 72.4117 16.8189C72.6946 15.9348 73.0925 15.1745 73.6053 14.5379C74.1269 13.8925 74.7502 13.3886 75.4752 13.0261C76.2001 12.6636 77.0003 12.4823 77.8755 12.4823C78.5917 12.4823 79.1929 12.584 79.6791 12.7874C80.1654 12.9907 80.6075 13.2648 81.0053 13.6096V6.64717H85.1164ZM92.0979 12.7476V26.5H87.9868V12.7476H92.0979ZM92.5223 8.98123C92.5223 9.30836 92.456 9.6178 92.3234 9.90956C92.1908 10.1925 92.0095 10.4444 91.7796 10.6655C91.5498 10.8777 91.2801 11.0501 90.9707 11.1827C90.6701 11.3065 90.3474 11.3683 90.0026 11.3683C89.6666 11.3683 89.3527 11.3065 89.061 11.1827C88.7692 11.0501 88.5084 10.8777 88.2785 10.6655C88.0575 10.4444 87.8807 10.1925 87.7481 9.90956C87.6243 9.6178 87.5624 9.30836 87.5624 8.98123C87.5624 8.64527 87.6243 8.33141 87.7481 8.03965C87.8807 7.74789 88.0575 7.4915 88.2785 7.27047C88.5084 7.04944 88.7692 6.87704 89.061 6.75326C89.3527 6.62948 89.6666 6.5676 90.0026 6.5676C90.3474 6.5676 90.6701 6.62948 90.9707 6.75326C91.2801 6.87704 91.5498 7.04944 91.7796 7.27047C92.0095 7.4915 92.1908 7.74789 92.3234 8.03965C92.456 8.33141 92.5223 8.64527 92.5223 8.98123ZM108.121 26.5H104.169C103.877 26.5 103.638 26.4293 103.453 26.2878C103.276 26.1464 103.134 25.9784 103.028 25.7839L100.575 21.5666C100.531 21.7169 100.478 21.8584 100.416 21.991C100.354 22.1236 100.288 22.2474 100.217 22.3623L98.201 25.7839C98.0773 25.9607 97.9314 26.1243 97.7634 26.2746C97.5954 26.4249 97.3788 26.5 97.1136 26.5H93.4533L98.0684 19.3917L93.639 12.7476H97.591C97.8827 12.7476 98.0949 12.7874 98.2276 12.8669C98.369 12.9377 98.4928 13.0614 98.5989 13.2383L101.052 17.3096C101.105 17.1505 101.172 16.9957 101.251 16.8454C101.331 16.6863 101.419 16.5272 101.516 16.368L103.267 13.3046C103.391 13.1101 103.519 12.9686 103.652 12.8802C103.793 12.7918 103.965 12.7476 104.169 12.7476H107.935L103.506 19.206L108.121 26.5Z" fill="#3858FF"/>
</svg>
