<svg width="18" height="19" viewBox="0 0 18 19" fill="none" xmlns="http://www.w3.org/2000/svg">
<path d="M16.166 15.0237C15.2424 13.4027 13.8003 12.1397 12.0717 11.4379C12.9313 10.7932 13.5663 9.89439 13.8866 8.86875C14.207 7.84311 14.1966 6.74267 13.8568 5.72329C13.517 4.70392 12.8651 3.8173 11.9934 3.18902C11.1217 2.56074 10.0744 2.22266 8.99992 2.22266C7.92541 2.22266 6.87813 2.56074 6.00644 3.18902C5.13475 3.8173 4.48284 4.70392 4.14305 5.72329C3.80326 6.74267 3.79281 7.84311 4.1132 8.86875C4.43358 9.89439 5.06855 10.7932 5.92816 11.4379C4.19957 12.1397 2.75741 13.4027 1.83383 15.0237C1.77661 15.1157 1.73846 15.2183 1.72167 15.3253C1.70489 15.4324 1.70979 15.5417 1.7361 15.6468C1.76242 15.752 1.8096 15.8507 1.87484 15.9373C1.94008 16.0238 2.02205 16.0963 2.11588 16.1505C2.20971 16.2047 2.31348 16.2395 2.42102 16.2528C2.52857 16.2661 2.63769 16.2577 2.7419 16.228C2.84611 16.1982 2.94329 16.1479 3.02765 16.0799C3.11201 16.0119 3.18183 15.9276 3.23297 15.832C4.45359 13.7222 6.60921 12.4639 8.99992 12.4639C11.3906 12.4639 13.5463 13.7229 14.7669 15.832C14.8777 16.0102 15.0535 16.1383 15.257 16.1893C15.4606 16.2402 15.676 16.21 15.8577 16.1051C16.0394 16.0001 16.1732 15.8286 16.2307 15.6268C16.2882 15.425 16.265 15.2087 16.166 15.0237ZM5.49704 7.34427C5.49704 6.65147 5.70248 5.97422 6.08738 5.39818C6.47228 4.82213 7.01936 4.37316 7.65943 4.10803C8.2995 3.84291 9.00381 3.77354 9.6833 3.9087C10.3628 4.04386 10.9869 4.37748 11.4768 4.86736C11.9667 5.35725 12.3003 5.9814 12.4355 6.6609C12.5707 7.34039 12.5013 8.0447 12.2362 8.68477C11.971 9.32484 11.5221 9.87191 10.946 10.2568C10.37 10.6417 9.69273 10.8472 8.99992 10.8472C8.07123 10.8461 7.18088 10.4767 6.52419 9.82C5.86751 9.16332 5.49811 8.27297 5.49704 7.34427Z" fill="#3A3A49"/>
</svg>
